<svg width="512" height="512" viewBox="0 0 512 512" fill="none" xmlns="http://www.w3.org/2000/svg">
<path d="M34.2617 384L145.132 448L256.002 512L108.175 256L34.2617 384Z" fill="#4685FF"/>
<path d="M34.2617 128V384L108.175 256L34.2617 128Z" fill="#0F62FE"/>
<path d="M366.871 448L477.741 384L403.828 256L256.002 512L366.871 448Z" fill="#0F62FE"/>
<path d="M366.871 64L256.002 0L403.828 256L477.741 128L366.871 64Z" fill="#0F62FE"/>
<path d="M145.132 64L34.2617 128L108.175 256L256.002 0L145.132 64Z" fill="#4685FF"/>
<path fill-rule="evenodd" clip-rule="evenodd" d="M256.002 0V512L403.828 256L477.741 384V128L403.828 256L256.002 0Z" fill="#4685FF"/>
<path d="M256.002 512V0L108.175 256L256.002 512Z" fill="#BAE6FF"/>
</svg>
